<?xml version="1.0" encoding="UTF-8" standalone="no"?>
<!-- Created with Inkscape (http://www.inkscape.org/) -->

<svg
   xmlns:dc="http://purl.org/dc/elements/1.1/"
   xmlns:cc="http://creativecommons.org/ns#"
   xmlns:rdf="http://www.w3.org/1999/02/22-rdf-syntax-ns#"
   xmlns:svg="http://www.w3.org/2000/svg"
   xmlns="http://www.w3.org/2000/svg"
   xmlns:sodipodi="http://sodipodi.sourceforge.net/DTD/sodipodi-0.dtd"
   xmlns:inkscape="http://www.inkscape.org/namespaces/inkscape"
   width="200"
   height="369"
   id="svg2"
   version="1.1"
   inkscape:version="0.91 r13725"
   sodipodi:docname="muscle-17.svg">
  <defs
     id="defs4" />
  <sodipodi:namedview
     id="base"
     pagecolor="#ffffff"
     bordercolor="#666666"
     borderopacity="1.0"
     inkscape:pageopacity="0"
     inkscape:pageshadow="2"
     inkscape:zoom="5.6"
     inkscape:cx="106.58224"
     inkscape:cy="293.99349"
     inkscape:document-units="px"
     inkscape:current-layer="layer1"
     showgrid="false"
     fit-margin-top="0"
     fit-margin-left="0"
     fit-margin-right="0"
     fit-margin-bottom="0"
     inkscape:window-width="963"
     inkscape:window-height="624"
     inkscape:window-x="493"
     inkscape:window-y="165"
     inkscape:window-maximized="0"
     height="524.41px" />
  <metadata
     id="metadata7">
    <rdf:RDF>
      <cc:Work
         rdf:about="">
        <dc:format>image/svg+xml</dc:format>
        <dc:type
           rdf:resource="http://purl.org/dc/dcmitype/StillImage" />
        <dc:title></dc:title>
      </cc:Work>
    </rdf:RDF>
  </metadata>
  <g
     inkscape:label="Ebene 1"
     inkscape:groupmode="layer"
     id="layer1"
     transform="translate(-395.71431,-316.50506)">
    <path
       sodipodi:nodetypes="cacsscc"
       inkscape:connector-curvature="0"
       id="path2992-9"
       d="m 469.1093,387.26341 c -10.85135,7.89337 -10.77605,7.89762 -14.98933,12.99401 -4.08169,4.93722 -8.28799,13.32533 -9.6333,16.62908 -1.40843,-3.00971 -1.75221,-10.83468 -1.53755,-13.37365 0.34451,-4.07504 -0.32121,-3.08955 1.52916,-8.28516 1.98835,-5.58304 5.05748,-8.39129 7.94645,-11.00916 11.43438,-6.76162 12.07574,-3.05449 16.68457,3.04488 z"
       style="opacity:0.52424239;fill:#fc0000;fill-opacity:1;stroke:none" />
    <path
       style="opacity:0.52424239;fill:#fc0000;fill-opacity:1;stroke:none"
       d="m 517.67614,386.19198 c 10.85135,7.89337 10.77605,7.89762 14.98933,12.99401 4.08169,4.93722 8.28799,13.32533 9.63329,16.62908 1.40844,-3.00971 1.75221,-10.83468 1.53756,-13.37365 -0.34452,-4.07504 0.32121,-3.08955 -1.52916,-8.28516 -1.98835,-5.58304 -5.05748,-8.39129 -7.94645,-11.00916 -11.43438,-6.76162 -12.07574,-3.05449 -16.68457,3.04488 z"
       id="path4157"
       inkscape:connector-curvature="0"
       sodipodi:nodetypes="cacsscc" />
  </g>
</svg>
