<?xml version="1.0" encoding="UTF-8" standalone="no"?>
<!-- Created with Inkscape (http://www.inkscape.org/) -->

<svg
   xmlns:dc="http://purl.org/dc/elements/1.1/"
   xmlns:cc="http://creativecommons.org/ns#"
   xmlns:rdf="http://www.w3.org/1999/02/22-rdf-syntax-ns#"
   xmlns:svg="http://www.w3.org/2000/svg"
   xmlns="http://www.w3.org/2000/svg"
   xmlns:sodipodi="http://sodipodi.sourceforge.net/DTD/sodipodi-0.dtd"
   xmlns:inkscape="http://www.inkscape.org/namespaces/inkscape"
   width="200"
   height="369.03"
   id="svg2"
   version="1.1"
   inkscape:version="0.91 r13725"
   sodipodi:docname="muscle-19.svg">
  <defs
     id="defs4" />
  <sodipodi:namedview
     id="base"
     pagecolor="#ffffff"
     bordercolor="#666666"
     borderopacity="1.0"
     inkscape:pageopacity="0"
     inkscape:pageshadow="2"
     inkscape:zoom="0.94221979"
     inkscape:cx="33.969802"
     inkscape:cy="244.89377"
     inkscape:document-units="px"
     inkscape:current-layer="layer1"
     showgrid="false"
     fit-margin-top="0"
     fit-margin-left="0"
     fit-margin-right="0"
     fit-margin-bottom="0"
     inkscape:window-width="1120"
     inkscape:window-height="798"
     inkscape:window-x="126"
     inkscape:window-y="24"
     inkscape:window-maximized="0" />
  <metadata
     id="metadata7">
    <rdf:RDF>
      <cc:Work
         rdf:about="">
        <dc:format>image/svg+xml</dc:format>
        <dc:type
           rdf:resource="http://purl.org/dc/dcmitype/StillImage" />
        <dc:title></dc:title>
      </cc:Work>
    </rdf:RDF>
  </metadata>
  <g
     inkscape:label="Ebene 1"
     inkscape:groupmode="layer"
     id="layer1"
     transform="translate(-54.28571,-335.71492)">
    <path
       sodipodi:nodetypes="cscssc"
       inkscape:connector-curvature="0"
       id="path2992-9"
       d="m 128.39845,410.97374 c 2.98034,2.84661 -5.12856,8.99634 -7.57708,11.18136 -12.69248,11.32651 -7.54396,5.60129 -23.403769,17.83054 7.037379,-5.86126 9.080929,-12.26568 13.058069,-19.87594 3.94791,-7.55431 5.12108,-9.58648 8.14551,-12.0466 5.85216,-4.76023 9.77727,2.91064 9.77727,2.91064 z"
       style="opacity:0.52424239;fill:#f57900;fill-opacity:1;stroke:none" />
    <path
       style="opacity:0.52424239;fill:#f57900;fill-opacity:1;stroke:none"
       d="m 182.06684,410.97374 c -2.98034,2.84661 5.12856,8.99634 7.57708,11.18136 12.69248,11.32651 7.54396,5.60129 23.40377,17.83054 -7.03738,-5.86126 -9.08093,-12.26568 -13.05807,-19.87594 -3.94791,-7.55431 -5.12108,-9.58648 -8.14551,-12.0466 -5.85216,-4.76023 -9.77727,2.91064 -9.77727,2.91064 z"
       id="path4157"
       inkscape:connector-curvature="0"
       sodipodi:nodetypes="cscssc" />
  </g>
</svg>
